# xmcd CD database file
#
# Track frame offsets:
#	150
#	12649
#	42152
#	61045
#	90238
#	114078
#	139469
#	182884
#	211287
#	237695
#
# Disc length: 3349 seconds
#
# Revision: 0
# Processed by: cddbd v1.4PL0 Copyright (c) Steve Scherf et al.
# Submitted via: CDex 1.51
#
DISCID=860d130a
DTITLE=Various Artist - Best of Chilled Jazz - CD 2
DYEAR=2003
DGENRE=Jazz
TTITLE0=Senõr Blues
TTITLE1=Tunji
TTITLE2=The Creator Has a Master Plan
TTITLE3=Keep You Kimi
TTITLE4=Bali
TTITLE5=Colors
TTITLE6=Chandra
TTITLE7=B. Erotica
TTITLE8=Analogue Acoustics
TTITLE9=New Délire
EXTD=YEAR: 2003
EXTT0=
EXTT1=
EXTT2=
EXTT3=
EXTT4=
EXTT5=
EXTT6=
EXTT7=
EXTT8=
EXTT9=
PLAYORDER=
